<svg xmlns="http://www.w3.org/2000/svg" width="162.026" height="57.118" viewBox="0 0 162.026 57.118">
  <g id="Group_24" data-name="Group 24" transform="translate(-78.279 -384.941)">
    <path id="Path_1" data-name="Path 1" d="M93,412.359c-.091-.039-.166.013-.243.045a99.539,99.539,0,0,1-10.179,3.268.4.4,0,0,1-.41-.072c-.363-.287-.73-.57-1.112-.83a.29.29,0,0,1-.118-.4c.2-.588.406-1.178.592-1.773a.564.564,0,0,1,.3-.348c1.255-.685,2.5-1.385,3.762-2.057a24.406,24.406,0,0,0,2.185-1.427,30.631,30.631,0,0,1,2.745-1.42.374.374,0,0,0,.178-.147l-7.607,2.972c.038-.484.071-.928.108-1.372.045-.546.084-1.093.144-1.638a.319.319,0,0,0-.138-.3c-.546-.5-1.086-1.012-1.64-1.506a.4.4,0,0,1-.134-.392,1.455,1.455,0,0,1,.75-1.182c.631-.388,1.215-.852,1.82-1.282.106-.076.218-.137.157-.305a6.285,6.285,0,0,1,.012-2.836c.1-1.059.238-2.115.354-3.173a12.093,12.093,0,0,1,.553-2.016,13.631,13.631,0,0,0,.226-1.69.2.2,0,0,0-.11-.212,2.6,2.6,0,0,0-.269-.177,3.15,3.15,0,0,1-1.338-1.51c-.084-.146-.033-.2.086-.27,1.584-.955,3.138-1.963,4.759-2.849a16.306,16.306,0,0,1,2.511-.907c1.5-.521,3.006-1.034,4.506-1.561a.454.454,0,0,1,.527.076,1.059,1.059,0,0,0,1.634.039.387.387,0,0,1,.642.056c.157.189.378.324.534.514a1.007,1.007,0,0,0,1.033.353c.505-.087.89.013,1.068.57.09.282.378.543.365.8s-.365.45-.567.671c-.349.38-.7.761-1.066,1.123a.324.324,0,0,0-.079.421c.118.276.223.558.314.844.061.192.157.284.368.258a3.639,3.639,0,0,1,2.357.554c.4.233.756.452.88.906a1.134,1.134,0,0,0,1.444.9,15.412,15.412,0,0,1,1.743-.018.3.3,0,0,1,.322.19c.4.775.365.736-.226,1.356a6.713,6.713,0,0,1-2.658,1.508c-.139.008-.278.02-.417.023-.624.014-1.249,0-1.871.043-1.695.1-3.383.281-5.069.487a2.012,2.012,0,0,0-1.975,2.352,1.965,1.965,0,0,0,2.3,1.906c.736-.085,1.471-.184,2.208-.266a36.709,36.709,0,0,1,6.243-.242,5.417,5.417,0,0,1,3.1,1.036,13.059,13.059,0,0,1,2.433,2.433l-2.695.992-.025-.159a2.282,2.282,0,0,0-1.521-1.92,1.923,1.923,0,0,0-2.157.619c-.686.7-1.307,1.457-1.952,2.193a7.555,7.555,0,0,0-1.92,5.612,33.727,33.727,0,0,0,.8,5.477c.636,2.85,1.466,5.654,2,8.528a9.791,9.791,0,0,1,.264,2.138,3.99,3.99,0,0,1-1.089,2.424c-.622.745-1.335,1.4-2.016,2.092a2.219,2.219,0,0,0-.132,2.967,2.251,2.251,0,0,0,3.117.051,10.969,10.969,0,0,0,.845-.842,12.229,12.229,0,0,0,3.18-4.714l3.849-.392a15.932,15.932,0,0,0,1.7,1.113,1.616,1.616,0,0,1,.687.567c-1.47.607-2.891,1.322-4.346,1.962-.235.1-.379.217-.276.5a1.571,1.571,0,0,1-.346,1.6,9.148,9.148,0,0,0-.53.883c-.089.145-.054.236.11.224a1.219,1.219,0,0,1,1.194.791,1.069,1.069,0,0,0,.185.263,1.326,1.326,0,0,1,.287,1.368c-.032.159-.122.171-.248.186q-2.436.286-4.871.579a1.4,1.4,0,0,1-.255.034.842.842,0,0,0-.879.511.425.425,0,0,1-.333.222q-5.526,1.143-11.049,2.3a.527.527,0,0,1-.45-.085q-.4-.274-.816-.519c-.135-.079-.148-.148-.065-.275.158-.244.283-.51.456-.741a.5.5,0,0,0,.008-.572c-.088-.179-.27-.086-.406-.082-.581.018-1.161.043-1.74.087-.162.012-.214-.055-.294-.172a1.4,1.4,0,0,1-.134-1.527c.19-.394.279-.835.432-1.248.068-.184.045-.305-.133-.4-.066-.034-.121-.091-.185-.128a7.371,7.371,0,0,1-2.527-2.485c-.506-.8-.925-1.648-1.385-2.473-.056-.1-.017-.151.067-.2.853-.542,1.681-1.131,2.568-1.609a6.424,6.424,0,0,1,1.488-.394c0,.14.005.28-.011.418a2.553,2.553,0,0,0,.266,1.436,2.067,2.067,0,0,0,1.983,1.19,1.987,1.987,0,0,0,1.8-1.4,4.321,4.321,0,0,0,.22-1.458c.1-2.073.243-4.14.524-6.2a31.1,31.1,0,0,1,2.174-8.1,20.249,20.249,0,0,0,1.363-4.054,7.2,7.2,0,0,0-1.685-6.6c-.7-.775-1.471-1.481-2.206-2.223a7.924,7.924,0,0,1-1.99-2.866,3.864,3.864,0,0,1,.973-4.483A10.527,10.527,0,0,1,95.4,393.17c.493-.248,1.037-.359,1.527-.605a2.036,2.036,0,0,0,.951-2.67,1.931,1.931,0,0,0-2.46-1.253,13.169,13.169,0,0,0-6.26,4.041,7.224,7.224,0,0,0-1.78,4.4,8.729,8.729,0,0,0,1.189,4.687,22.84,22.84,0,0,0,3.053,4.072c.585.661,1.178,1.313,1.7,2.025a2.355,2.355,0,0,1,.472,2,17.315,17.315,0,0,1-.743,2.43c-.028.013-.082,0-.055.065Zm-2.058-5.221a.113.113,0,0,1,.013-.023.116.116,0,0,1,.021-.016l-.028.041-.107.019c.006,0,.013.015.017.014C90.885,407.164,90.914,407.151,90.942,407.139Z" transform="translate(-2.195)" fill="#23a950"/>
    <path id="Path_2" data-name="Path 2" d="M749.189,465.871a7.005,7.005,0,0,0,4.155,4.88,9.6,9.6,0,0,0,4.81.627,12.134,12.134,0,0,0,5.761-2.167,8.241,8.241,0,0,1,1.4-.787.916.916,0,0,1,1.128.162.99.99,0,0,1,.14,1.167,4.163,4.163,0,0,1-1.316,1.484,13.923,13.923,0,0,1-6.907,2.887,15.291,15.291,0,0,1-7.531-.784,9,9,0,0,1-5.759-5.786,10.931,10.931,0,0,1,2.41-11.164,12.655,12.655,0,0,1,7.972-4.109,16.305,16.305,0,0,1,6.621.4,6.811,6.811,0,0,1,3.17,1.839,4.977,4.977,0,0,1-.673,7.268,13.168,13.168,0,0,1-4.244,2.119,41.7,41.7,0,0,1-7.569,1.556C751.578,465.612,750.392,465.734,749.189,465.871Zm-.384-3.094c0,.172.012.346,0,.516-.018.2.041.268.249.244.475-.057.954-.085,1.43-.141q1.178-.139,2.354-.3a29.989,29.989,0,0,0,3.678-.734,10.929,10.929,0,0,0,4.175-1.872,3.468,3.468,0,0,0,1.445-3.148,2.914,2.914,0,0,0-1.354-2.291,5.625,5.625,0,0,0-2.934-.86A8.3,8.3,0,0,0,753,455.246,8.607,8.607,0,0,0,748.806,462.777Z" transform="translate(-557.365 -56.201)" fill="#23a950"/>
    <path id="Path_3" data-name="Path 3" d="M126.148,430.727a17.312,17.312,0,0,0,.743-2.43,2.355,2.355,0,0,0-.472-2c-.525-.712-1.118-1.364-1.7-2.025a22.844,22.844,0,0,1-3.053-4.072,8.729,8.729,0,0,1-1.189-4.687,7.224,7.224,0,0,1,1.78-4.4,13.169,13.169,0,0,1,6.26-4.041,1.931,1.931,0,0,1,2.46,1.253,2.036,2.036,0,0,1-.951,2.67c-.49.246-1.034.357-1.527.605a10.526,10.526,0,0,0-2.486,1.718,3.864,3.864,0,0,0-.973,4.483,7.923,7.923,0,0,0,1.99,2.866c.735.742,1.5,1.449,2.206,2.223a7.2,7.2,0,0,1,1.685,6.6,20.25,20.25,0,0,1-1.363,4.054,31.1,31.1,0,0,0-2.174,8.1c-.281,2.057-.428,4.125-.524,6.2a4.321,4.321,0,0,1-.22,1.458,1.987,1.987,0,0,1-1.8,1.4,2.067,2.067,0,0,1-1.983-1.19,2.553,2.553,0,0,1-.266-1.436c.016-.138.008-.279.011-.418a12.29,12.29,0,0,0,.081-1.419q.09-1.171.181-2.343l.057-.553c.116-1.119.212-2.24.354-3.356a18.374,18.374,0,0,1,.695-3.589,2.711,2.711,0,0,0,.261-.884l-.005,0c.047.019.05-.02.061-.047a1.766,1.766,0,0,0,.2-.536l1.46-3.684a.805.805,0,0,0,.158-.454l0,0C126.145,430.8,126.148,430.765,126.148,430.727Z" transform="translate(-35.293 -18.428)" fill="#f58220"/>
    <path id="Path_4" data-name="Path 4" d="M922.989,452.15a15.681,15.681,0,0,1,4.879.678,4.844,4.844,0,0,1,1.857,1.069,2.368,2.368,0,0,1,.733,1.469,5.087,5.087,0,0,1-.082,1.54.867.867,0,0,1-1.237.725,2.82,2.82,0,0,1-1.21-.832,7.326,7.326,0,0,0-3.974-2.253,7.078,7.078,0,0,0-3.7.1,4.12,4.12,0,0,0-1.781,1.179,2.485,2.485,0,0,0,.789,3.916,10.5,10.5,0,0,0,1.168.458c1.51.478,3.071.736,4.609,1.1.722.169,1.441.352,2.145.587a6.627,6.627,0,0,1,3.061,2.07,5.313,5.313,0,0,1,.863,5.065,6.7,6.7,0,0,1-4.09,4.406,11.761,11.761,0,0,1-5.628.836,11.89,11.89,0,0,1-6.5-2.4,4.73,4.73,0,0,1-1.165-1.2,2.076,2.076,0,0,1-.356-.957,1.546,1.546,0,0,1,2.143-1.535,3.884,3.884,0,0,1,1.324,1.01,10.611,10.611,0,0,0,1.392,1.295,7.532,7.532,0,0,0,5.2,1.31,5.512,5.512,0,0,0,3.411-1.358,2.93,2.93,0,0,0,1-2.51,1.952,1.952,0,0,0-.781-1.327,8.591,8.591,0,0,0-3.085-1.489c-1.243-.392-2.534-.581-3.792-.909a13.813,13.813,0,0,1-3.247-1.228,4.671,4.671,0,0,1-2.5-4.994c.322-2.894,2.169-4.461,4.769-5.323A11.847,11.847,0,0,1,922.989,452.15Z" transform="translate(-698.655 -56.229)" fill="#23a950"/>
    <path id="Path_5" data-name="Path 5" d="M502.93,464.14a11.516,11.516,0,0,1,11.193-11.929,13.2,13.2,0,0,1,5.695.849,6.263,6.263,0,0,1,2.564,1.735,2.407,2.407,0,0,1,.545,1.152,1.939,1.939,0,0,1-1.86,2.229,2.8,2.8,0,0,1-2.263-1.1c-.4-.421-.78-.86-1.195-1.269a4.621,4.621,0,0,0-3.882-1.166,6.052,6.052,0,0,0-5.087,3.533,10.746,10.746,0,0,0-.54,9.025,6.608,6.608,0,0,0,5.9,4.342,9.119,9.119,0,0,0,7.021-2.327,10.569,10.569,0,0,1,1.119-.872,1.322,1.322,0,0,1,1.458.208.6.6,0,0,1,.14.54,3.833,3.833,0,0,1-1.176,1.926,10.53,10.53,0,0,1-5.565,3,13.106,13.106,0,0,1-7.013-.269,9.813,9.813,0,0,1-6.948-8.126A11.225,11.225,0,0,1,502.93,464.14Z" transform="translate(-355.275 -56.263)" fill="#23a950"/>
    <path id="Path_6" data-name="Path 6" d="M258.909,602.651a1.616,1.616,0,0,0-.687-.567,15.938,15.938,0,0,1-1.7-1.113l-1.131-1.1c-.068-.1-.134-.194-.2-.289a5.3,5.3,0,0,1-.92-4.341,5.968,5.968,0,0,1,4.948-4.641,2.432,2.432,0,0,1,3.033,2.047q0,.342,0,.685a2.4,2.4,0,0,1-2.052,2.033,2.293,2.293,0,0,0-.755.268.7.7,0,0,0-.177,1.178,2.157,2.157,0,0,0,.258.243q1.257.984,2.518,1.963a.19.19,0,0,0,.034.054,4.883,4.883,0,0,1,1.765,3.63,16.4,16.4,0,0,1-.442,5.82,2.518,2.518,0,0,1-1.527,1.871,2.454,2.454,0,0,1-3.34-2.048,2.178,2.178,0,0,1,.1-.827,10.229,10.229,0,0,0,.44-3.627A3.424,3.424,0,0,0,258.909,602.651Z" transform="translate(-147.131 -172.023)" fill="#f58220"/>
    <path id="Path_7" data-name="Path 7" d="M181.9,461.079a13.058,13.058,0,0,0-2.433-2.433,5.416,5.416,0,0,0-3.1-1.036,36.709,36.709,0,0,0-6.243.242c-.737.082-1.471.181-2.208.266a1.965,1.965,0,0,1-2.3-1.906,2.012,2.012,0,0,1,1.975-2.352c1.686-.206,3.374-.384,5.069-.487.622-.038,1.247-.029,1.871-.043.139,0,.278-.015.417-.023l2.119.1a14.093,14.093,0,0,1,1.81.3,10.791,10.791,0,0,1,4.709,2.875,20.425,20.425,0,0,1,2.908,3.611l.5.848a4.2,4.2,0,0,1,.654,2.289,2.5,2.5,0,0,1-1.161,1.577,2.394,2.394,0,0,1-1.7.178,2.426,2.426,0,0,1-.98-.763,5.263,5.263,0,0,1-.263-.58,6.471,6.471,0,0,0-1-1.8A4.4,4.4,0,0,0,181.9,461.079Z" transform="translate(-73.056 -57.197)" fill="#f58220"/>
    <path id="Path_8" data-name="Path 8" d="M666.1,461.508q0,3.955,0,7.909c0,.151,0,.3.013.452a1.2,1.2,0,0,0,.917,1.21,5.266,5.266,0,0,1,1.14.439,1.975,1.975,0,0,1,.477.327.7.7,0,0,1-.264,1.215,3.291,3.291,0,0,1-1.083.15q-3.279,0-6.558-.011a2.821,2.821,0,0,1-.607-.077.727.727,0,0,1-.642-.554.854.854,0,0,1,.322-.887,3.508,3.508,0,0,1,.948-.474,1.633,1.633,0,0,0,1.264-1.878q0-5.73,0-11.461c0-.376-.026-.752-.048-1.127a1.158,1.158,0,0,0-.525-.917,6.312,6.312,0,0,0-1.107-.59,2.426,2.426,0,0,1-.583-.341.646.646,0,0,1-.092-1.013,1.73,1.73,0,0,1,.56-.43,23.873,23.873,0,0,1,4.044-1.668,3.01,3.01,0,0,1,.856-.144.77.77,0,0,1,.844.677,6.881,6.881,0,0,1,.124,1.411Q666.1,457.617,666.1,461.508Z" transform="translate(-486.235 -55.802)" fill="#23a950"/>
    <path id="Path_9" data-name="Path 9" d="M287.02,603.913q-1.26-.981-2.518-1.963a2.158,2.158,0,0,1-.258-.243.7.7,0,0,1,.177-1.178,2.291,2.291,0,0,1,.755-.268,2.4,2.4,0,0,0,2.052-2.033c1.207-.145,2.391-.426,3.593-.6,1.394-.2,2.795-.355,4.192-.531q3.282-.414,6.578-.686a1,1,0,0,1,.44.058c.393.144.781.3,1.18.429a.553.553,0,0,1,.38.384q.46,1.238.951,2.464a.872.872,0,0,1,.037.65c-.032.091-.046.188-.074.28-.087.286-.043.692-.264.833s-.583.044-.884.044c-.969,0-1.938.011-2.907,0a2.6,2.6,0,0,0-1.161.2,11.879,11.879,0,0,1-3.23.7c-2.929.464-5.888.745-8.783,1.417C287.191,603.892,287.105,603.9,287.02,603.913Z" transform="translate(-172.112 -176.92)" fill="#23a950"/>
    <path id="Path_10" data-name="Path 10" d="M237.335,519.855a2.394,2.394,0,0,0,1.7-.178c.953-.076,1.906-.171,2.86-.218a.885.885,0,0,0,.913-.537c.051-.126.158-.149.29-.149q2.05.006,4.1,0a.359.359,0,0,1,.311.128.792.792,0,0,0,.183.181c.574.359.416.93.419,1.45,0,.191-.185.151-.3.173-1.557.314-3.115.622-4.68.983.478.1.955.208,1.433.309.574.121.575.119.575.695,0,.54,0,.54.537.54.721,0,1.442.008,2.163-.005.215,0,.3.044.305.276a10.152,10.152,0,0,0,.067,1.061c.023.21-.038.3-.25.351-1.539.4-3.073.806-4.609,1.212,0-.151,0-.3,0-.451a4.235,4.235,0,1,0-8.4.779,5.307,5.307,0,0,0,.7,1.719l-5.916,1.574c-.129-.486-.262-.971-.385-1.458a26.841,26.841,0,0,1-.9-4.756,5.111,5.111,0,0,1,.037-1.567c1.323-.368,2.644-.745,3.97-1.1A18.4,18.4,0,0,1,237.335,519.855Z" transform="translate(-125.609 -111.968)" fill="#23a950"/>
    <path id="Path_11" data-name="Path 11" d="M248.5,574.541a2.432,2.432,0,0,0-3.033-2.047,5.968,5.968,0,0,0-4.948,4.641,5.3,5.3,0,0,0,.92,4.341c.069.1.136.193.2.289l-2.517.327a18.21,18.21,0,0,0-.331-4.968c-.288-1.586-.7-3.142-1.088-4.7a18.8,18.8,0,0,0,2.522-.281c1.353-.371,2.7-.768,4.047-1.154a4.28,4.28,0,0,0,6.094-.889q2.05-.246,4.1-.491c1.868-.225,3.737-.448,5.6-.685.236-.03.32.046.376.257.089.331.214.653.306.984a.293.293,0,0,0,.311.25c1.535.1,3.068.217,4.6.314.227.014.26.077.2.277-.1.34-.186.684-.257,1.031-.038.185-.139.232-.31.249-2.205.216-4.408.463-6.616.653-2.4.207-4.776.605-7.143,1.051C250.532,574.176,249.516,574.356,248.5,574.541Z" transform="translate(-133.382 -153.917)" fill="#23a950"/>
    <path id="Path_12" data-name="Path 12" d="M275.759,541.965a4.28,4.28,0,0,1-6.094.889l-.847-.861a5.3,5.3,0,0,1-.7-1.719,4.235,4.235,0,1,1,8.4-.779c0,.15,0,.3,0,.451A5.22,5.22,0,0,1,275.759,541.965Z" transform="translate(-158.772 -125.786)" fill="#f58220"/>
    <path id="Path_13" data-name="Path 13" d="M496.634,608.61q-25.3,0-50.606,0c-.158,0-.357.092-.368-.232-.013-.351.2-.282.389-.282h42.979q29.116,0,58.232.006c.142,0,.372-.137.4.2.032.35-.17.314-.391.314Q521.953,608.609,496.634,608.61Z" transform="translate(-307.36 -186.678)" fill="#f58220"/>
    <path id="Path_14" data-name="Path 14" d="M88.934,581.65a2.712,2.712,0,0,1-.261.884,18.372,18.372,0,0,0-.695,3.589c-.142,1.115-.238,2.237-.354,3.356a45.708,45.708,0,0,1-4.978,1.653,8.8,8.8,0,0,0-2.214,1.024,1.406,1.406,0,0,1-1.53-.005.961.961,0,0,1-.618-1.051c.046-.782.011-.786.734-1.088q1.75-.732,3.5-1.46l0-.084H81.491c-.586,0-.561,0-.594-.593a.962.962,0,0,1,.384-.921c.1-.076.172-.194.27-.277a3.379,3.379,0,0,0,1.193-1.821.409.409,0,0,1,.234-.286q2.933-1.447,5.863-2.9A.382.382,0,0,1,88.934,581.65Z" transform="translate(0 -164.573)" fill="#23a950"/>
    <path id="Path_15" data-name="Path 15" d="M245.189,458.173a20.423,20.423,0,0,0-2.908-3.611,10.791,10.791,0,0,0-4.709-2.875,14.1,14.1,0,0,0-1.81-.3c.889-.148,1.783-.272,2.665-.455a1.128,1.128,0,0,1,1.135.309c.059.061.144.1.205.156a1.816,1.816,0,0,0,1.658.568c.269-.046.435.153.63.277.226.144.543.26.634.47s-.19.468-.284.715l-.055.146c.583.093,1.15.189,1.719.269a.948.948,0,0,1,.413.164c.454.307.915.6,1.366.916a.827.827,0,0,0,.539.155c1.053-.049,2.107-.08,3.16-.135.223-.011.277.056.261.264-.039.525-.072,1.051-.084,1.577a.367.367,0,0,1-.253.375,12.628,12.628,0,0,1-3.549.889Z" transform="translate(-131.755 -55.178)" fill="#23a950"/>
    <path id="Path_16" data-name="Path 16" d="M669.75,405.268a2.439,2.439,0,0,1-2.612-2.842,2.128,2.128,0,0,1,1.128-1.6,3.077,3.077,0,0,1,2.969-.112,2.141,2.141,0,0,1,1.317,2.081,2.326,2.326,0,0,1-1.422,2.2A2.993,2.993,0,0,1,669.75,405.268Z" transform="translate(-492.632 -12.918)" fill="#f58220"/>
    <path id="Path_17" data-name="Path 17" d="M109.683,555.553l-1.46,3.684c-1.94.587-3.881,1.17-5.819,1.765a.443.443,0,0,1-.445-.064,6.9,6.9,0,0,0-.7-.464.457.457,0,0,1-.222-.416.643.643,0,0,1,.429-.745,11.183,11.183,0,0,0,1.148-.653,5.969,5.969,0,0,1,1.885-.8,14.5,14.5,0,0,0,3.835-1.624A11.436,11.436,0,0,1,109.683,555.553Z" transform="translate(-19.036 -142.739)" fill="#23a950"/>
    <path id="Path_18" data-name="Path 18" d="M297.179,499.442a4.2,4.2,0,0,0-.654-2.289c1.068-.2,2.143-.359,3.2-.6a3.4,3.4,0,0,1,1.92.133c.467.159.95.269,1.425.407.334.1.138.378.184.573.037.159-.025.241-.2.285C301.093,498.442,299.136,498.944,297.179,499.442Z" transform="translate(-182.591 -93.31)" fill="#23a950"/>
    <path id="Path_19" data-name="Path 19" d="M121.921,632.959q-.091,1.171-.181,2.343c-.478.158-.957.308-1.431.477a.423.423,0,0,1-.4-.071c-.67-.387-.475-1.053-.561-1.629-.017-.116.083-.135.16-.166Z" transform="translate(-34.354 -207.499)" fill="#23a950"/>
    <path id="Path_20" data-name="Path 20" d="M805.945,663.16a1.682,1.682,0,0,1-2.348-.019,2,2,0,0,1-.39-2.108,1.556,1.556,0,0,1,1.311-1.139,1.5,1.5,0,0,1,1.731.852c.032.09.156.244-.017.279-.13.026-.318.119-.427-.13a1.128,1.128,0,0,0-1.951-.15,1.79,1.79,0,0,0-.061,1.928,1.133,1.133,0,0,0,1.275.536,1.044,1.044,0,0,0,.857-.89c.025-.173,0-.261-.2-.249-.247.016-.5,0-.742.006-.141.005-.185-.044-.185-.184s.023-.215.192-.21c.387.011.775.015,1.162,0,.2-.008.224.082.221.248-.009.462,0,.925-.006,1.388,0,.089.069.225-.115.244-.155.016-.212-.059-.234-.2A1.411,1.411,0,0,0,805.945,663.16Z" transform="translate(-606.383 -230.011)" fill="#23a950"/>
    <path id="Path_21" data-name="Path 21" d="M745.542,663.083c0-.848,0-1.7,0-2.545,0-.168,0-.276.23-.278s.228.112.227.277c0,1.012,0,2.023-.006,3.035,0,.1.075.28-.079.3-.182.023-.394.1-.543-.14-.479-.766-.975-1.521-1.466-2.279-.084-.13-.174-.257-.311-.459,0,.923,0,1.757,0,2.591,0,.151.055.31-.22.313s-.233-.139-.232-.3c0-1,0-2,.007-3,0-.1-.106-.295.1-.314.174-.017.371-.081.512.146.518.83,1.055,1.648,1.586,2.47.045.07.095.137.142.2Z" transform="translate(-556.223 -230.339)" fill="#23a950"/>
    <path id="Path_22" data-name="Path 22" d="M893.879,627.32c.684.43.266,1.2.617,1.719-.579.063-.587.056-.613-.484,0-.075,0-.15-.01-.225-.049-.673-.2-.822-.876-.812-.3,0-.694-.134-.864.061-.146.168-.042.554-.047.844,0,.118,0,.237,0,.355.007.171.017.3-.24.3s-.235-.137-.234-.3c0-1,.008-2,0-3,0-.216.064-.271.271-.265.473.015.947,0,1.421.005a.987.987,0,0,1,1.052.63A1.03,1.03,0,0,1,893.879,627.32Zm-1.06-1.421c-.172,0-.345.009-.517,0s-.231.044-.223.217c.012.269,0,.538,0,.807,0,.093-.023.21.13.2a6.466,6.466,0,0,0,1.255-.041.55.55,0,0,0,.444-.651.543.543,0,0,0-.576-.532C893.164,625.893,892.992,625.9,892.819,625.9Z" transform="translate(-680.456 -201.264)" fill="#23a950"/>
    <path id="Path_23" data-name="Path 23" d="M830.57,662.514c.7.422.273,1.193.626,1.712-.558.087-.584.067-.61-.464,0-.054,0-.108-.006-.161-.061-.878-.3-.92-.935-.891a4.485,4.485,0,0,1-.613,0c-.21-.019-.253.069-.246.258.013.354-.005.71.008,1.064.006.181-.048.243-.233.237-.165-.005-.249-.023-.247-.224.01-1.043.007-2.086,0-3.129,0-.147.032-.211.195-.208.538.008,1.077-.008,1.614.007a.937.937,0,0,1,.941.649A1.019,1.019,0,0,1,830.57,662.514Zm-1.029-1.417c-.757,0-.757,0-.757.743,0,.108,0,.215,0,.323s.026.166.143.161a7.22,7.22,0,0,0,1.224-.037.557.557,0,0,0,.462-.669.545.545,0,0,0-.587-.52C829.865,661.091,829.7,661.1,829.541,661.1Z" transform="translate(-627.499 -230.713)" fill="#23a950"/>
    <path id="Path_24" data-name="Path 24" d="M831.765,627.32c.684.43.266,1.2.617,1.719-.578.063-.586.056-.613-.483,0-.075,0-.15-.01-.226-.049-.673-.2-.822-.876-.813-.3,0-.694-.134-.864.061-.146.168-.042.554-.047.844,0,.118,0,.237,0,.355.007.17.018.3-.24.3s-.235-.136-.235-.3c0-1,.008-2,0-3,0-.216.063-.272.271-.265.473.015.947,0,1.42.005a.987.987,0,0,1,1.053.63A1.029,1.029,0,0,1,831.765,627.32Zm-1.077-.194a3.018,3.018,0,0,0,.646-.033.57.57,0,0,0,.464-.671.542.542,0,0,0-.585-.522c-.237-.008-.474,0-.711,0-.533,0-.533,0-.533.547C829.969,627.126,829.969,627.126,830.688,627.126Z" transform="translate(-628.49 -201.264)" fill="#23a950"/>
    <path id="Path_25" data-name="Path 25" d="M563.166,628.488c-.924,0-1.469-.363-1.583-.956-.019-.1-.132-.278.1-.3.14-.012.311-.079.351.188a.772.772,0,0,0,.684.638,1.145,1.145,0,0,0,1.092-.211.537.537,0,0,0-.127-.85,3.27,3.27,0,0,0-.829-.249,4.811,4.811,0,0,1-.645-.193.875.875,0,0,1-.22-1.5,1.7,1.7,0,0,1,1.9-.054.917.917,0,0,1,.352.56c.019.1.122.257-.053.292-.141.028-.343.106-.4-.17-.122-.645-1.088-.675-1.447-.393a.5.5,0,0,0,.1.865,5.3,5.3,0,0,0,.838.226,4.938,4.938,0,0,1,.553.17.871.871,0,0,1,.594.771.94.94,0,0,1-.468.925A1.628,1.628,0,0,1,563.166,628.488Z" transform="translate(-404.308 -200.623)" fill="#23a950"/>
    <path id="Path_26" data-name="Path 26" d="M449.058,628.49a1.3,1.3,0,0,1-1.414-.929c-.024-.111-.147-.291.091-.326.163-.024.315-.046.36.221a.779.779,0,0,0,.738.618,1.086,1.086,0,0,0,1.049-.25.536.536,0,0,0-.153-.825,3.316,3.316,0,0,0-.829-.248,4.726,4.726,0,0,1-.645-.194.875.875,0,0,1-.215-1.5,1.7,1.7,0,0,1,1.9-.05.919.919,0,0,1,.351.561c.019.1.122.256-.057.29-.143.027-.341.1-.394-.174-.127-.663-1.143-.668-1.473-.368a.5.5,0,0,0,.132.844,4.925,4.925,0,0,0,.807.217,5.576,5.576,0,0,1,.554.167.877.877,0,0,1,.621.785.942.942,0,0,1-.5.94A1.786,1.786,0,0,1,449.058,628.49Z" transform="translate(-308.977 -200.624)" fill="#23a950"/>
    <path id="Path_27" data-name="Path 27" d="M715.707,624.74a1.147,1.147,0,0,1,1.267.864c.017.089.1.241-.071.255-.132.011-.333.115-.379-.15-.108-.63-1-.7-1.411-.448a.526.526,0,0,0-.251.492.447.447,0,0,0,.314.408,7.762,7.762,0,0,0,.931.25,3.38,3.38,0,0,1,.544.191.922.922,0,0,1,.134,1.579,1.889,1.889,0,0,1-2.141-.049.993.993,0,0,1-.339-.607c-.015-.1-.128-.277.1-.292.148-.009.306-.063.346.2a.771.771,0,0,0,.689.632,1.134,1.134,0,0,0,1.089-.219A.536.536,0,0,0,716.4,627a3.115,3.115,0,0,0-.8-.239,6.313,6.313,0,0,1-.619-.173.8.8,0,0,1-.59-.727.924.924,0,0,1,.485-.913A1.615,1.615,0,0,1,715.707,624.74Z" transform="translate(-532.085 -200.623)" fill="#23a950"/>
    <path id="Path_28" data-name="Path 28" d="M620.769,659.923a1.148,1.148,0,0,1,1.267.866c.017.089.1.241-.072.255-.133.01-.332.114-.378-.151-.108-.63-1-.7-1.411-.446a.526.526,0,0,0-.25.492.448.448,0,0,0,.315.407,6.469,6.469,0,0,0,.932.248,2.658,2.658,0,0,1,.545.189.928.928,0,0,1,.13,1.583,1.889,1.889,0,0,1-2.141-.051,1.018,1.018,0,0,1-.34-.607c-.017-.1-.106-.259.076-.285.145-.021.332-.095.376.191a.771.771,0,0,0,.69.632,1.133,1.133,0,0,0,1.089-.219.536.536,0,0,0-.14-.847,3.138,3.138,0,0,0-.8-.239,6.3,6.3,0,0,1-.619-.173.8.8,0,0,1-.59-.727.925.925,0,0,1,.485-.913A1.64,1.64,0,0,1,620.769,659.923Z" transform="translate(-452.658 -230.058)" fill="#23a950"/>
    <path id="Path_29" data-name="Path 29" d="M702.9,662.482c0-.516.008-1.032,0-1.548,0-.184.051-.245.235-.233a10.271,10.271,0,0,1,1.543.061,1.353,1.353,0,0,1,1.132,1.127,2.754,2.754,0,0,1-.024,1.184,1.438,1.438,0,0,1-1.453,1.179c-.408.02-.818-.005-1.226.008-.186.006-.207-.078-.205-.231C702.908,663.514,702.9,663,702.9,662.482Zm.468,0v.548c0,.9,0,.9.91.843a1.066,1.066,0,0,0,1.005-.768,2.221,2.221,0,0,0,.035-1.177.983.983,0,0,0-1-.83c-.225-.01-.452.011-.677-.005-.205-.015-.286.042-.276.263C703.385,661.726,703.372,662.1,703.372,662.478Z" transform="translate(-522.576 -230.708)" fill="#23a950"/>
    <path id="Path_30" data-name="Path 30" d="M531.2,627.295c0-.505.008-1.011,0-1.515,0-.2.028-.293.257-.277a10.2,10.2,0,0,1,1.542.066,1.33,1.33,0,0,1,1.085,1.021,2.629,2.629,0,0,1-.059,1.494,1.437,1.437,0,0,1-1.416.974c-.4.015-.8-.005-1.194.006-.172.005-.219-.053-.216-.22C531.206,628.327,531.2,627.811,531.2,627.295Zm.468-.032v.612c0,.8,0,.8.8.8a1.1,1.1,0,0,0,1.175-.968,2.511,2.511,0,0,0-.006-.93,1,1,0,0,0-1.031-.878c-.236-.008-.474.011-.709-.005-.2-.013-.232.074-.227.245C531.675,626.511,531.668,626.887,531.668,627.263Z" transform="translate(-378.923 -201.259)" fill="#23a950"/>
    <path id="Path_31" data-name="Path 31" d="M797.85,627.294c0-.505.008-1.011,0-1.515,0-.2.032-.291.259-.276a10.143,10.143,0,0,1,1.542.066,1.344,1.344,0,0,1,1.1,1.084,2.7,2.7,0,0,1-.022,1.247,1.441,1.441,0,0,1-1.471,1.157c-.4.015-.8-.005-1.194.006-.175.005-.236-.057-.211-.222a.21.21,0,0,0,0-.032Zm.468-.008v.547c0,.876,0,.876.883.838a1.066,1.066,0,0,0,1.033-.774,2.218,2.218,0,0,0,.032-1.177.977.977,0,0,0-.975-.823c-.257-.014-.516,0-.773-.006-.155-.006-.206.049-.2.2C798.324,626.492,798.318,626.889,798.318,627.286Z" transform="translate(-602.009 -201.26)" fill="#23a950"/>
    <path id="Path_32" data-name="Path 32" d="M915.565,626.572a1.715,1.715,0,0,1-2.207,1.8,1.409,1.409,0,0,1-.183-.06,1.967,1.967,0,0,1-.91-2.529,1.681,1.681,0,0,1,2.154-1.013A1.784,1.784,0,0,1,915.565,626.572Zm-2.959-.026a1.963,1.963,0,0,0,.115.695,1.189,1.189,0,0,0,2.248.018,1.873,1.873,0,0,0-.1-1.587,1.175,1.175,0,0,0-2.008-.074A1.791,1.791,0,0,0,912.606,626.545Z" transform="translate(-697.62 -200.572)" fill="#23a950"/>
    <path id="Path_33" data-name="Path 33" d="M937.9,627.314c0-.517,0-1.033,0-1.55,0-.093-.055-.24.126-.235a7.217,7.217,0,0,1,1.753.1,1.312,1.312,0,0,1,1.033,1.285,2.558,2.558,0,0,1-.19,1.4,1.427,1.427,0,0,1-1.314.766c-.4.019-.8,0-1.2.007-.171,0-.221-.05-.218-.219C937.908,628.347,937.9,627.831,937.9,627.314Zm.468-.025v.612c0,.8,0,.8.8.791a1.1,1.1,0,0,0,1.164-.942,2.412,2.412,0,0,0-.009-.992.992.992,0,0,0-1-.84c-.247-.012-.495.007-.741-.005-.167-.008-.226.047-.221.218C938.377,626.516,938.37,626.9,938.37,627.289Z" transform="translate(-719.181 -201.28)" fill="#23a950"/>
    <path id="Path_34" data-name="Path 34" d="M982.4,626.547a1.857,1.857,0,0,0,.134.757,1.113,1.113,0,0,0,1.142.722.941.941,0,0,0,.931-.826c.063-.294.26-.218.415-.2.2.026.073.185.053.275a1.381,1.381,0,0,1-1.342,1.137,1.543,1.543,0,0,1-1.679-1.029,2.391,2.391,0,0,1-.019-1.585,1.679,1.679,0,0,1,2.4-.946,1.225,1.225,0,0,1,.607.721c.026.077.1.22-.025.24s-.3.1-.408-.064c-.438-.658-.776-.819-1.355-.646a1.3,1.3,0,0,0-.848,1.314C982.394,626.461,982.4,626.5,982.4,626.547Z" transform="translate(-755.999 -200.55)" fill="#23a950"/>
    <path id="Path_35" data-name="Path 35" d="M959.968,626.423c0-.355.006-.71,0-1.064,0-.171.005-.275.232-.272.209,0,.247.071.244.26q-.015,1.032,0,2.064a.965.965,0,1,0,1.93.015q.011-1.048,0-2.1c0-.174.037-.242.227-.241s.263.037.259.247c-.014.666,0,1.333-.007,2a1.325,1.325,0,0,1-1.7,1.43,1.2,1.2,0,0,1-1.178-1.342C959.965,627.09,959.968,626.757,959.968,626.423Z" transform="translate(-737.644 -200.913)" fill="#23a950"/>
    <path id="Path_36" data-name="Path 36" d="M511.042,626.456c0,.29,0,.581,0,.871a1.329,1.329,0,0,1-1.729,1.425,1.188,1.188,0,0,1-1.149-1.331c-.007-.688,0-1.376,0-2.064,0-.166,0-.272.228-.276.246,0,.247.111.246.29-.006.688-.012,1.376,0,2.064a.877.877,0,0,0,.976.95.849.849,0,0,0,.951-.929c.011-.709.008-1.419,0-2.129,0-.171.029-.247.224-.243s.272.029.261.244C511.029,625.7,511.042,626.08,511.042,626.456Z" transform="translate(-359.651 -200.908)" fill="#23a950"/>
    <path id="Path_37" data-name="Path 37" d="M625.37,626.441c0,.3,0,.6,0,.9a1.326,1.326,0,0,1-1.709,1.419,1.2,1.2,0,0,1-1.169-1.349c-.005-.7.006-1.4-.005-2.1,0-.193.07-.226.242-.228s.238.049.235.234q-.015,1.048,0,2.1a.884.884,0,0,0,.989.97.842.842,0,0,0,.938-.909c.013-.709.009-1.419,0-2.128,0-.177.014-.271.236-.266.2,0,.257.062.249.257C625.359,625.71,625.37,626.075,625.37,626.441Z" transform="translate(-455.299 -200.913)" fill="#23a950"/>
    <path id="Path_38" data-name="Path 38" d="M679.861,661.622c0-.355.007-.71,0-1.064,0-.183.007-.291.249-.289s.226.115.225.278c0,.688-.01,1.376,0,2.064a.878.878,0,0,0,.964.962.848.848,0,0,0,.963-.916c.013-.709.01-1.419,0-2.128,0-.191.037-.257.244-.258s.243.083.24.265c-.009.667,0,1.333,0,2a1.214,1.214,0,0,1-.648,1.266,1.8,1.8,0,0,1-1.782-.126,1.039,1.039,0,0,1-.439-.892c-.013-.387,0-.774,0-1.161Z" transform="translate(-503.298 -230.347)" fill="#23a950"/>
    <path id="Path_39" data-name="Path 39" d="M774.806,626.414c0-.365.01-.731,0-1.1-.007-.187.056-.236.237-.234s.244.036.241.229q-.017,1.048,0,2.1a.879.879,0,0,0,.952.975.855.855,0,0,0,.977-.935c.01-.7.006-1.4,0-2.1,0-.168,0-.27.229-.272s.255.1.253.286c-.008.656,0,1.312,0,1.967a1.325,1.325,0,0,1-1.7,1.426,1.2,1.2,0,0,1-1.175-1.344C774.8,627.081,774.806,626.747,774.806,626.414Z" transform="translate(-582.731 -200.907)" fill="#23a950"/>
    <path id="Path_40" data-name="Path 40" d="M850.9,663.849c-.4.133-.562-.023-.67-.379-.21-.69-.232-.684-.95-.684-.81,0-.832-.007-1.067.75-.107.346-.288.4-.611.317l1.119-2.912c.05-.13.11-.257.15-.39.057-.19.131-.3.374-.3s.309.1.381.292C850.042,661.649,850.472,662.747,850.9,663.849Zm-1.639-3.1a1.959,1.959,0,0,0-.269.647c-.093.333-.334.625-.281,1h1.127Z" transform="translate(-643.636 -230.336)" fill="#23a950"/>
    <path id="Path_41" data-name="Path 41" d="M642.018,663.9c-.5.066-.5.066-.654-.364-.248-.705-.248-.705-1.008-.705s-.79-.006-1.023.725c-.106.333-.263.457-.615.336.443-1.15.888-2.3,1.326-3.451.074-.195.227-.112.353-.127a.236.236,0,0,1,.3.165C641.127,661.619,641.574,662.756,642.018,663.9Zm-2.27-1.472h1.2l-.6-1.687Z" transform="translate(-468.879 -230.38)" fill="#23a950"/>
    <path id="Path_42" data-name="Path 42" d="M646.37,628.711c-.5.066-.5.066-.654-.364-.248-.705-.248-.705-1.008-.705s-.79-.006-1.023.724c-.106.333-.263.457-.615.336.443-1.151.888-2.3,1.326-3.451.074-.195.227-.112.353-.127a.236.236,0,0,1,.3.164C645.479,626.431,645.926,627.568,646.37,628.711Zm-1.628-3.067-.071,0-.576,1.607c.362,0,.683-.005,1,0,.158,0,.209-.025.144-.2C645.066,626.592,644.908,626.116,644.742,625.644Z" transform="translate(-472.52 -200.94)" fill="#23a950"/>
    <path id="Path_43" data-name="Path 43" d="M470.32,628.706c-.359.092-.559.014-.67-.371-.206-.709-.234-.7-.969-.7-.8,0-.814-.006-1.05.732-.1.32-.251.448-.612.33l.522-1.358c.262-.681.529-1.36.783-2.043.055-.149.137-.205.284-.18s.294-.072.376.143C469.422,626.411,469.873,627.558,470.32,628.706Zm-1.661-3.159c-.211.579-.393,1.075-.573,1.572-.037.1.016.129.109.128.34,0,.681,0,1.061,0Z" transform="translate(-325.231 -200.933)" fill="#23a950"/>
    <path id="Path_44" data-name="Path 44" d="M733.636,628.718c.45-1.17.892-2.309,1.325-3.452.073-.192.216-.129.345-.141a.257.257,0,0,1,.319.182c.429,1.133.873,2.26,1.312,3.391-.492.1-.492.1-.644-.335-.252-.719-.252-.719-1.03-.719-.754,0-.754,0-1.01.708C734.1,628.764,734.1,628.764,733.636,628.718Zm1.681-3.063-.07-.012-.575,1.6h1.2Z" transform="translate(-548.291 -200.942)" fill="#23a950"/>
    <path id="Path_45" data-name="Path 45" d="M1052.269,628.7c-.393.134-.559-.018-.668-.375-.212-.694-.233-.687-.98-.687-.782,0-.8-.007-1.038.747-.106.341-.283.411-.613.322l.45-1.167c.286-.741.578-1.479.852-2.224a.255.255,0,0,1,.305-.2c.154.013.332-.043.377.19a1.479,1.479,0,0,0,.094.239Zm-1.062-1.465-.563-1.6c-.115.044-.113.131-.137.2-.168.459-.33.92-.5,1.4Z" transform="translate(-812.109 -200.937)" fill="#23a950"/>
    <path id="Path_46" data-name="Path 46" d="M583.417,627.274c0-.506.006-1.012,0-1.517,0-.168.023-.25.222-.247.678.012,1.357.006,2.035,0,.131,0,.221,0,.223.181s-.067.213-.227.211c-.517-.008-1.034,0-1.55-.007-.187,0-.232.059-.236.238-.021.864-.026.864.833.864.28,0,.56.008.84,0,.159-.007.2.049.2.2s-.07.193-.212.191c-.474-.006-.948,0-1.421-.006-.179,0-.25.044-.241.232a7.707,7.707,0,0,1,0,.839c-.011.2.074.23.246.227.517-.009,1.034,0,1.551-.005.145,0,.241.006.241.2s-.111.192-.248.191c-.668,0-1.335-.008-2,0-.193,0-.262-.041-.256-.248C583.427,628.307,583.417,627.79,583.417,627.274Z" transform="translate(-422.608 -201.267)" fill="#23a950"/>
    <path id="Path_47" data-name="Path 47" d="M851.663,627.283c0-.517.007-1.033,0-1.55,0-.171.05-.22.219-.218q1.018.013,2.035,0c.16,0,.229.033.227.211s-.092.182-.223.181c-.517,0-1.034.006-1.551-.005-.181,0-.236.049-.24.234-.021.868-.028.868.83.868.28,0,.56.007.84,0,.151-.005.205.039.206.2s-.06.2-.208.2c-.463-.008-.926.006-1.389-.007-.2-.006-.295.035-.278.261a6.328,6.328,0,0,1,0,.807c-.01.19.064.235.241.232.517-.01,1.034,0,1.55,0,.14,0,.245,0,.245.194s-.1.2-.244.2c-.678,0-1.357-.009-2.035,0-.2,0-.229-.071-.226-.244C851.669,628.316,851.663,627.8,851.663,627.283Z" transform="translate(-647.032 -201.272)" fill="#23a950"/>
    <path id="Path_48" data-name="Path 48" d="M784.8,662.471c0-.516.007-1.033,0-1.549,0-.172.053-.219.22-.217q1.017.012,2.035,0c.162,0,.227.035.226.212s-.094.181-.224.18c-.517,0-1.034.006-1.55-.005-.182,0-.235.051-.239.235-.021.867-.027.867.831.867.28,0,.56.007.84,0,.153-.005.2.042.2.2s-.062.2-.209.194c-.463-.007-.926.007-1.389-.007-.2-.006-.294.038-.277.262a6.314,6.314,0,0,1,0,.806c-.01.191.066.234.242.231.517-.01,1.034,0,1.551,0,.141,0,.244,0,.244.2s-.1.2-.245.2c-.668,0-1.336-.012-2,0-.227.005-.263-.082-.258-.278C784.807,663.483,784.8,662.977,784.8,662.471Z" transform="translate(-591.092 -230.712)" fill="#23a950"/>
    <path id="Path_49" data-name="Path 49" d="M602.446,627.217l-.774,1.166c-.236.355-.236.355-.734.3.365-.546.714-1.084,1.083-1.608a.33.33,0,0,0,0-.45c-.345-.49-.672-.992-1.011-1.5a.588.588,0,0,1,.793.332c.183.347.415.669.648,1.038.247-.372.49-.7.691-1.051a.56.56,0,0,1,.752-.32c-.341.5-.675,1.013-1.024,1.51a.31.31,0,0,0,0,.421c.371.525.725,1.062,1.1,1.62-.346.073-.6.057-.78-.291C602.984,627.993,602.712,627.629,602.446,627.217Z" transform="translate(-437.272 -200.911)" fill="#23a950"/>
    <path id="Path_50" data-name="Path 50" d="M871.043,627.271c0-.506.006-1.011,0-1.517,0-.168.025-.252.223-.246.484.014.969-.006,1.453.007a1.032,1.032,0,0,1-.017,2.063c-.323.007-.646.01-.968,0-.173-.007-.222.055-.218.22.009.355-.008.71.007,1.065.008.186-.075.209-.229.208s-.258-.01-.252-.217C871.053,628.326,871.043,627.8,871.043,627.271Zm.468-.72a2.928,2.928,0,0,1,0,.354c-.027.219.043.309.279.291.278-.021.559.007.838-.01a.641.641,0,0,0,.021-1.279,4.458,4.458,0,0,0-.483-.007C871.512,625.9,871.512,625.9,871.512,626.552Z" transform="translate(-663.246 -201.266)" fill="#23a950"/>
    <path id="Path_51" data-name="Path 51" d="M1030.925,625.134c.5-.054.5-.053.64.388.285.876.573,1.752.861,2.634.138-.072.132-.2.167-.31.264-.783.54-1.562.771-2.355.1-.341.258-.457.619-.347q-.267.756-.533,1.511c-.221.627-.45,1.252-.656,1.885a.244.244,0,0,1-.312.187c-.135-.016-.29.065-.364-.155C1031.73,627.424,1031.325,626.282,1030.925,625.134Z" transform="translate(-797.011 -200.928)" fill="#23a950"/>
    <path id="Path_52" data-name="Path 52" d="M1004.781,627.508c0-.462-.007-.924,0-1.385,0-.171-.055-.225-.222-.217-.257.012-.516,0-.773,0-.137,0-.22-.014-.216-.187,0-.148.037-.207.2-.206q1.241.01,2.482,0c.164,0,.195.066.195.209s-.049.188-.187.183c-.247-.008-.5.011-.741-.006-.206-.014-.273.045-.27.262.013.88,0,1.761.007,2.642,0,.164.006.274-.226.275s-.256-.1-.252-.287C1004.787,628.368,1004.781,627.938,1004.781,627.508Z" transform="translate(-774.128 -201.274)" fill="#23a950"/>
    <path id="Path_53" data-name="Path 53" d="M765.5,662.676c0,.451-.008.9,0,1.353,0,.177-.041.238-.229.24s-.255-.053-.253-.253c.011-.88,0-1.761.01-2.642,0-.229-.066-.3-.289-.282s-.473,0-.709.006c-.138,0-.219-.016-.215-.188,0-.149.039-.206.2-.205q1.241.01,2.482,0c.165,0,.193.068.194.21s-.051.187-.188.183c-.258-.008-.516.008-.773-.006-.18-.01-.241.044-.236.23C765.511,661.774,765.5,662.225,765.5,662.676Z" transform="translate(-573.544 -230.713)" fill="#23a950"/>
    <path id="Path_54" data-name="Path 54" d="M490.453,626.926c0-.527.005-1.054,0-1.58,0-.169.027-.247.223-.248s.255.054.252.254c-.011.882.011,1.764-.013,2.645-.008.3.09.358.362.345.451-.022.9,0,1.355-.008.144,0,.212.028.21.193s-.052.2-.2.2c-.656-.007-1.313-.008-1.969,0-.17,0-.221-.049-.218-.219C490.459,627.979,490.453,627.452,490.453,626.926Z" transform="translate(-344.833 -200.922)" fill="#23a950"/>
    <path id="Path_55" data-name="Path 55" d="M661.754,662.1c0-.527.01-1.054,0-1.58-.006-.212.1-.211.254-.216s.224.042.222.215c-.008.914,0,1.828-.009,2.742,0,.232.07.289.291.282.473-.016.947,0,1.42-.007.141,0,.216.021.213.19,0,.153-.045.2-.2.2-.656-.007-1.313-.011-1.969,0-.2,0-.222-.084-.22-.249C661.759,663.151,661.754,662.624,661.754,662.1Z" transform="translate(-488.147 -230.374)" fill="#23a950"/>
    <path id="Path_56" data-name="Path 56" d="M757.1,626.9c0-.516.008-1.032,0-1.548,0-.188.033-.26.244-.263.228,0,.232.106.231.274-.005.892,0,1.785-.007,2.677,0,.218.045.3.281.292.473-.019.947,0,1.42-.009.163,0,.225.037.224.213s-.1.179-.224.179c-.646,0-1.291-.008-1.937,0-.189,0-.234-.061-.231-.239C757.111,627.952,757.1,627.425,757.1,626.9Z" transform="translate(-567.921 -200.914)" fill="#23a950"/>
    <path id="Path_57" data-name="Path 57" d="M666.505,626.919c0-.527.008-1.054,0-1.581,0-.187.059-.234.238-.234s.241.046.239.233c-.009.9.006,1.806-.01,2.709,0,.249.071.308.308.3.462-.019.925,0,1.388-.008.152,0,.234.02.23.206s-.083.186-.219.185c-.646,0-1.291-.008-1.937,0-.181,0-.242-.045-.237-.233C666.513,627.973,666.505,627.446,666.505,626.919Z" transform="translate(-492.123 -200.928)" fill="#23a950"/>
    <path id="Path_58" data-name="Path 58" d="M870.65,662.105c0-.527.008-1.054,0-1.581,0-.188.061-.232.239-.233s.239.048.237.234c-.009.9.006,1.807-.01,2.709,0,.251.074.307.309.3.462-.018.925,0,1.388-.008.153,0,.232.023.229.208s-.085.185-.219.184c-.646,0-1.291-.008-1.937,0-.182,0-.24-.048-.236-.234C870.658,663.159,870.65,662.632,870.65,662.105Z" transform="translate(-662.917 -230.367)" fill="#23a950"/>
    <path id="Path_59" data-name="Path 59" d="M1024.651,626.91c0-.516.005-1.032,0-1.547,0-.178.018-.275.238-.269.193.005.257.05.255.253q-.015,1.563,0,3.127c0,.2-.06.248-.254.253-.219.006-.242-.09-.239-.269C1024.657,627.942,1024.651,627.426,1024.651,626.91Z" transform="translate(-791.759 -200.919)" fill="#23a950"/>
    <path id="Path_60" data-name="Path 60" d="M735.133,662.113c0,.526-.008,1.053,0,1.579,0,.192-.066.235-.242.231s-.254-.017-.252-.221q.014-1.6,0-3.191c0-.214.107-.205.259-.214.186-.01.238.056.234.237C735.127,661.06,735.133,661.587,735.133,662.113Z" transform="translate(-549.134 -230.37)" fill="#23a950"/>
    <path id="Path_61" data-name="Path 61" d="M693.269,637.382c.172,0,.344,0,.515,0,.133,0,.218.008.221.182s-.068.214-.227.21c-.343-.01-.687-.01-1.03,0-.155,0-.2-.046-.2-.2s.061-.2.208-.193C692.926,637.389,693.1,637.382,693.269,637.382Z" transform="translate(-513.914 -211.197)" fill="#23a950"/>
    <path id="Path_62" data-name="Path 62" d="M143.523,581.382c-.012.027-.014.066-.061.047Z" transform="translate(-54.534 -164.348)" fill="#23a950"/>
    <path id="Path_63" data-name="Path 63" d="M204.779,509.3c.388,1.562.8,3.118,1.088,4.7a18.21,18.21,0,0,1,.331,4.968l-.2,1.165a12.229,12.229,0,0,1-3.18,4.714,10.978,10.978,0,0,1-.845.842,2.251,2.251,0,0,1-3.117-.051,2.219,2.219,0,0,1,.132-2.967c.681-.689,1.394-1.346,2.016-2.092a3.99,3.99,0,0,0,1.089-2.424,9.792,9.792,0,0,0-.264-2.138c-.534-2.874-1.364-5.678-2-8.528a33.729,33.729,0,0,1-.8-5.477,7.555,7.555,0,0,1,1.92-5.612c.645-.737,1.266-1.494,1.952-2.193a1.923,1.923,0,0,1,2.157-.619,2.282,2.282,0,0,1,1.521,1.92l.025.159-.091.7a3,3,0,0,1-.561.814c-.624.691-1.243,1.388-1.848,2.095a2.745,2.745,0,0,0-.692,1.213.4.4,0,0,0-.068.305,5.111,5.111,0,0,0-.037,1.567,26.838,26.838,0,0,0,.9,4.756c.123.488.256.972.385,1.459Z" transform="translate(-100.454 -90.799)" fill="#f58220"/>
    <path id="Path_64" data-name="Path 64" d="M245.16,649.071l.2-1.165,2.517-.327,1.131,1.1Z" transform="translate(-139.617 -219.731)" fill="#fefefe"/>
    <path id="Path_65" data-name="Path 65" d="M248.3,502.573l.091-.7,2.695-.992a4.4,4.4,0,0,1,.64.858Z" transform="translate(-142.245 -97.001)" fill="#fefefe"/>
    <path id="Path_66" data-name="Path 66" d="M142.359,520.621l.028-.042a.12.12,0,0,0-.021.016.112.112,0,0,0-.013.023Z" transform="translate(-53.606 -113.479)" fill="#fefefe"/>
    <path id="Path_67" data-name="Path 67" d="M141.829,520.816c-.029.012-.057.025-.086.036,0,0-.011-.009-.016-.014l.108-.019Z" transform="translate(-53.082 -113.677)" fill="#fefefe"/>
    <path id="Path_68" data-name="Path 68" d="M154.937,552.4c0,.037,0,.071-.055.065C154.855,552.407,154.909,552.416,154.937,552.4Z" transform="translate(-64.082 -140.104)" fill="#fefefe"/>
    <path id="Path_69" data-name="Path 69" d="M770.913,473.309a8.607,8.607,0,0,1,4.2-7.531,8.3,8.3,0,0,1,4.844-1.055,5.625,5.625,0,0,1,2.934.86,2.914,2.914,0,0,1,1.354,2.291,3.467,3.467,0,0,1-1.445,3.148,10.93,10.93,0,0,1-4.175,1.872,29.988,29.988,0,0,1-3.678.734q-1.176.16-2.355.3c-.476.056-.954.085-1.43.141-.207.025-.267-.046-.249-.244C770.925,473.655,770.913,473.482,770.913,473.309Z" transform="translate(-579.472 -66.733)" fill="#fefefe"/>
    <path id="Path_70" data-name="Path 70" d="M232.418,506.967l3.426-.832a6.47,6.47,0,0,1,1,1.8,5.293,5.293,0,0,0,.263.58c-.588.167-1.184.309-1.762.5-2.013.679-4.02,1.376-6.029,2.067a2.745,2.745,0,0,1,.692-1.213c.605-.707,1.224-1.4,1.848-2.095A3,3,0,0,0,232.418,506.967Z" transform="translate(-126.362 -101.395)" fill="#23a950"/>
    <path id="Path_71" data-name="Path 71" d="M228.956,523.3c2.009-.69,4.016-1.388,6.029-2.067.578-.2,1.174-.337,1.762-.5a2.427,2.427,0,0,0,.981.763,18.4,18.4,0,0,0-4.869,1.01c-1.326.358-2.647.735-3.97,1.1A.4.4,0,0,1,228.956,523.3Z" transform="translate(-126.001 -113.601)" fill="#fefefe"/>
    <path id="Path_72" data-name="Path 72" d="M236.711,578.618l-.195-.723,5.916-1.574.847.861c-1.348.386-2.694.783-4.047,1.154A18.8,18.8,0,0,1,236.711,578.618Z" transform="translate(-132.385 -160.115)" fill="#fefefe"/>
    <path id="Path_73" data-name="Path 73" d="M895.224,627.89c.172,0,.345-.006.517,0a.544.544,0,0,1,.576.532.55.55,0,0,1-.444.651,6.461,6.461,0,0,1-1.255.041c-.153.006-.129-.111-.13-.2,0-.269.008-.538,0-.807-.008-.173.056-.228.223-.217S895.052,627.89,895.224,627.89Z" transform="translate(-682.861 -203.255)" fill="#fefefe"/>
    <path id="Path_74" data-name="Path 74" d="M831.96,663.088c.162,0,.323-.005.485,0a.545.545,0,0,1,.587.52.557.557,0,0,1-.462.669,7.232,7.232,0,0,1-1.224.037c-.117,0-.147-.059-.143-.161s0-.215,0-.323C831.2,663.088,831.2,663.088,831.96,663.088Z" transform="translate(-629.918 -232.705)" fill="#fefefe"/>
    <path id="Path_75" data-name="Path 75" d="M833.113,629.125c-.72,0-.72,0-.72-.681,0-.547,0-.547.533-.547.237,0,.474-.006.711,0a.542.542,0,0,1,.585.522.571.571,0,0,1-.464.671A3.013,3.013,0,0,1,833.113,629.125Z" transform="translate(-630.914 -203.263)" fill="#fefefe"/>
    <path id="Path_76" data-name="Path 76" d="M705.761,664.453c0-.376.013-.752,0-1.127-.01-.221.071-.278.276-.263.224.016.451,0,.676.006a.983.983,0,0,1,1,.83,2.222,2.222,0,0,1-.035,1.177,1.066,1.066,0,0,1-1.005.768c-.91.055-.91.055-.91-.843Z" transform="translate(-524.965 -232.684)" fill="#fefefe"/>
    <path id="Path_77" data-name="Path 77" d="M534.07,629.252c0-.376.007-.752,0-1.127,0-.171.03-.258.227-.245.235.016.473,0,.709.005a1,1,0,0,1,1.031.878,2.511,2.511,0,0,1,.006.93,1.1,1.1,0,0,1-1.175.968c-.8.008-.8.008-.8-.8Q534.07,629.558,534.07,629.252Z" transform="translate(-381.325 -203.249)" fill="#fefefe"/>
    <path id="Path_78" data-name="Path 78" d="M800.729,629.286c0-.4.006-.795,0-1.192,0-.154.048-.209.2-.2.258.01.516-.008.773.006a.977.977,0,0,1,.975.823,2.22,2.22,0,0,1-.032,1.177,1.066,1.066,0,0,1-1.033.774c-.883.038-.883.038-.883-.838Z" transform="translate(-604.42 -203.259)" fill="#fefefe"/>
    <path id="Path_79" data-name="Path 79" d="M915.069,628.535a1.791,1.791,0,0,1,.26-.948,1.175,1.175,0,0,1,2.008.074,1.873,1.873,0,0,1,.1,1.587,1.189,1.189,0,0,1-2.248-.018A1.963,1.963,0,0,1,915.069,628.535Z" transform="translate(-700.082 -202.563)" fill="#fefefe"/>
    <path id="Path_80" data-name="Path 80" d="M940.778,629.265c0-.387.007-.773,0-1.159,0-.171.054-.226.221-.218.247.012.495-.007.741.005a.992.992,0,0,1,1,.84,2.408,2.408,0,0,1,.009.992,1.1,1.1,0,0,1-1.163.942c-.8.009-.8.009-.8-.791Z" transform="translate(-721.589 -203.256)" fill="#fefefe"/>
    <path id="Path_81" data-name="Path 81" d="M854.9,663.269l.577,1.646h-1.127c-.053-.373.188-.666.281-1A1.958,1.958,0,0,1,854.9,663.269Z" transform="translate(-649.28 -232.858)" fill="#fefefe"/>
    <path id="Path_82" data-name="Path 82" d="M645.024,664.641l.607-1.687.6,1.687Z" transform="translate(-474.155 -232.594)" fill="#fefefe"/>
    <path id="Path_83" data-name="Path 83" d="M650,628.329c.165.473.323.948.5,1.416.065.172.014.2-.144.2-.32-.007-.64,0-1,0l.576-1.607Z" transform="translate(-477.774 -203.626)" fill="#fefefe"/>
    <path id="Path_84" data-name="Path 84" d="M474.056,627.785l.6,1.7c-.38,0-.72,0-1.061,0-.093,0-.147-.025-.109-.128C473.664,628.86,473.845,628.364,474.056,627.785Z" transform="translate(-330.629 -203.17)" fill="#fefefe"/>
    <path id="Path_85" data-name="Path 85" d="M740.62,628.326l.556,1.586h-1.2l.575-1.6Z" transform="translate(-553.594 -203.613)" fill="#fefefe"/>
    <path id="Path_86" data-name="Path 86" d="M1056.507,629.917h-1.2c.171-.481.333-.942.5-1.4.024-.065.021-.153.137-.2Z" transform="translate(-817.409 -203.618)" fill="#fefefe"/>
    <path id="Path_87" data-name="Path 87" d="M873.894,628.548c0-.651,0-.651.652-.651a4.443,4.443,0,0,1,.483.008.641.641,0,0,1-.021,1.279c-.278.017-.56-.011-.838.01-.235.018-.305-.072-.279-.291A2.942,2.942,0,0,0,873.894,628.548Z" transform="translate(-665.628 -203.262)" fill="#fefefe"/>
  </g>
</svg>
